<?xml version="1.0" encoding="UTF-8"?>
<svg id="_レイヤー_1" data-name="レイヤー 1" xmlns="http://www.w3.org/2000/svg" viewBox="0 0 44.5496 33.9293">
  <defs>
    <style>
      .cls-1 {
        fill: none;
      }

      .cls-1, .cls-2, .cls-3 {
        stroke-width: 0px;
      }

      .cls-2 {
        fill: #005aaa;
      }

      .cls-3 {
        fill: #8dd8f8;
      }
    </style>
  </defs>
  <g id="_アートボード1" data-name="アートボード1">
    <rect class="cls-1" width="44.5496" height="33.9293"/>
    <g>
      <path class="cls-2" d="M36.0942,4.0375c0,1.6292-1.3209,2.9466-2.9488,2.9466-1.6292,0-2.9466-1.3174-2.9466-2.9466,0-1.6278,1.3174-2.9466,2.9466-2.9466,1.6278,0,2.9488,1.3188,2.9488,2.9466"/>
      <path class="cls-2" d="M37.0674,14.9574c-.3471-2.53-1.9811-4.6649-4.4045-6.1671-.197,5.9662-4.9307,16.2744-15.1191,18.5538,1.8709.2834,3.8897.3051,5.9671.0211,8.2708-1.1325,14.3391-6.6862,13.5566-12.4078"/>
      <path class="cls-2" d="M31.817,8.3119c-2.9845-1.5556-6.9392-2.2346-11.1417-1.6604-8.2704,1.1307-14.3367,6.6843-13.5561,12.406.1137.8385.3857,1.629.7671,2.3758,11.6041,1.9346,21.7439-6.5661,23.9307-13.1214"/>
      <path class="cls-3" d="M32.665,8.7897c-.2727-.168-.556-.3257-.8469-.478-2.1871,6.5546-12.3266,15.0556-23.9308,13.1212,1.5567,3.0523,5.1755,5.2314,9.6581,5.9101,10.1885-2.2791,14.9229-12.5871,15.1197-18.5534"/>
      <path class="cls-2" d="M39.4443,6.7308l-.0971-.0829c-.0588-.0503-.1283-.0319-.1842.0333l-1.0077,1.1757c-.09.1049-.2622.2572-.3947.3033-.1587.0553-.3671.0404-.5301-.0992-.2239-.192-.2268-.4904-.0716-.6711.0879-.1028.2296-.163.3451-.0638.085.0723.0971.1828.0213.2721-.0524.0602-.1141.0801-.2232.0645-.0744-.0099-.0992.0007-.1155.0191-.0581.0687-.005.1687.0638.2268.2785.2395.6137-.1424.715-.2608l.9879-1.1516c.0581-.0688.0588-.1354.0021-.1843l-.0971-.0836c-.0163-.0142-.0191-.0439.0028-.0702.0205-.0234.0524-.0319.0716-.0163l.5854.5024c.017.0135.022.0454-.0028.0744-.022.0262-.0546.0262-.0709.0121"/>
      <path class="cls-2" d="M38.7072,9.4247l-.6052-.6399c-.017-.0184-.0213-.0524.0064-.0794.0227-.0205.0574-.0199.0765.0014l.1219.1283c.0638.068.141.034.202-.0227l1.4464-1.3677c.0652-.0616.073-.129.0198-.1856l-.124-.1311c-.017-.0184-.0191-.0503.0057-.0744.0255-.0241.0595-.0227.0794-.0014l.6045.6399c.017.0177.0191.0546-.0064.0787-.0227.0212-.0553.022-.0765-.0007l-.1261-.1332c-.051-.0545-.1212-.0482-.1864.0135l-1.4443,1.3649c-.0631.0603-.0985.1318-.0368.1977l.1261.1332c.017.0184.0213.0532-.0042.0773-.0248.0241-.0595.022-.0787.0014"/>
      <path class="cls-2" d="M40.2819,10.9263c-.1269.0043-.5046.0114-.7618-.3621-.3543-.5159-.1176-1.2224.4521-1.6143.5811-.4004,1.3514-.3593,1.6703.1028.0666.0985.129.2374.1332.4564.0007.0369.0021.1.0198.1254.0206.0312.0595.039.1184.0333.0602-.0049.0772.0022.09.0199.0191.0284,0,.068-.0454.0992l-.4557.3139c-.0432.0291-.0879.0383-.1106.0042-.0177-.0248-.0149-.0276.0588-.146.1424-.2381.3097-.5456.1141-.8298-.2643-.3848-.8639-.2657-1.3904.0971-.5074.3494-.8185.8433-.5386,1.2501.0687.0999.1913.2239.4351.2778.1254.0312.1708.0298.4861.005.0461-.0057.0787-.0014.095.0227.0205.0305-.0028.0695-.0291.0865-.0482.0333-.2126.056-.3416.0581"/>
      <path class="cls-2" d="M40.9161,13.3002l-.2417-.601c-.0085-.0199-.0007-.0567.0347-.0708.0319-.0128.0616.0057.0709.0291l.0305.0751c.0347.0865.1212.0779.1949.0489l.8957-.3593-.3692-.9184-.8958.3593c-.0801.0326-.1396.0893-.107.1701l.0305.0751c.0078.0205.0035.0553-.0319.0702-.0319.0128-.0652-.0042-.0744-.0276l-.2417-.6002c-.0092-.0234-.0007-.0567.0347-.0709.029-.0113.0609.0029.0716.0284l.0184.0461c.0333.0843.1176.0801.1949.0489l1.8496-.7405c.0836-.0333.1162-.0936.0879-.163l-.0184-.0454c-.0092-.0234-.0007-.0567.0312-.0695.0291-.012.0638.0007.0744.0269l.2417.5995c.0085.0212.0007.0567-.0347.0716-.0319.0127-.0602-.0029-.0709-.0291l-.0305-.0744c-.0291-.073-.102-.0872-.1786-.056l-.8454.3388.3699.9177.8447-.338c.0765-.0312.1212-.0893.0907-.1644l-.0305-.0751c-.0092-.0227,0-.0567.0319-.0695s.0652.0043.0744.0269l.2417.601c.0092.0234-.0028.0574-.0347.0708-.0291.0113-.0595,0-.0709-.0283l-.0177-.0433c-.0284-.0694-.0907-.0942-.1772-.0602l-1.8496.7412c-.0836.034-.1396.09-.1056.1729l.0177.0439c.0092.0227,0,.0567-.0319.0694-.0326.0128-.0638-.0014-.0744-.0269"/>
      <path class="cls-2" d="M41.1443,14.507l-.1729-.8632c-.005-.0241.0099-.056.0468-.0631.0305-.0064.0595.0128.0652.0411l.0347.1736c.0184.0907.1013.1028.1828.0858l1.951-.3954c.0879-.0177.1297-.0702.1148-.1474l-.0361-.1765c-.0042-.0241.0113-.0532.0446-.0595.034-.0071.0631.012.068.0404l.1736.8624c.005.0241-.0135.056-.0475.0638-.0305.0064-.0581-.0106-.0645-.0411l-.0361-.18c-.0149-.073-.0773-.1049-.1658-.0872l-1.9474.3954c-.0843.017-.1531.0595-.1354.1481l.0361.18c.005.0241-.0099.056-.0439.0623-.0333.0078-.0624-.0127-.068-.0397"/>
      <path class="cls-2" d="M41.0437,18.1722l.0829-.7101c.0028-.0241.0269-.0496.0652-.0453.034.0035.0517.0311.0489.0588l-.0149.1233c-.0106.0929.0652.1297.1474.1389l2.0069.2339c.0071.0007.0411.005.0432-.017.0021-.0121-.0177-.0241-.0376-.0319l-2.0459-.8518c-.1028-.0432-.1127-.0475-.1077-.0878.0035-.034.0142-.0355.1184-.0574l2.104-.4216c.0142-.0014.0468-.0106.0489-.0319.0035-.0248-.0517-.0312-.0758-.0347l-1.5392-.1793c-.3231-.0376-.4542.0418-.5265.18-.0305.056-.0425.0645-.0666.0617-.0305-.0035-.0517-.0312-.0482-.0588l.0652-.5591c.0028-.022.0156-.0446.0503-.0411.0241.0035.0305.0099.0694.0929.0305.0631.0928.1828.4677.2268l1.5087.175c.1509.0177.258-.0007.2835-.0985.0262-.1098.0312-.1205.0794-.1155.0446.0049.0524.0305.0496.0496l-.0567.4876c-.0035.0276-.0127.0765-.1084.0942l-1.9389.3749,1.7631.7334c.0829.0354.1354.0666.1233.1644l-.051.4387c-.0028.0248-.0305.0496-.0645.0454-.0312-.0029-.0531-.0276-.0496-.0581l.0085-.0716c.0092-.0772-.0482-.1247-.1304-.1339l-1.9757-.2296c-.0857-.0106-.1651.0085-.175.0985l-.0085.0708c-.0028.0241-.0269.0496-.0616.0454-.0305-.0029-.0553-.0312-.0517-.0588"/>
      <path class="cls-2" d="M40.3223,20.1612l.6187-1.6767c.0099-.0269.039-.0461.0744-.0326.0298.0106.0432.0425.034.0687l-.0574.1538c-.0319.0879.034.1382.112.1673l1.8638.6909c.0843.0312.1474.0085.1736-.0616l.0567-.1538c.0085-.0234.0376-.0418.0702-.0298.0291.0099.0461.0433.0369.0695l-.613,1.659c-.0198.0553-.0631.0624-.1183.0425l-.3848-.1432c-.0361-.0128-.0532-.0361-.0454-.056.0085-.0227.0404-.0312.0751-.0347.36-.0489.4443-.0574.5683-.3919l.2169-.5889-.9872-.3657-.0801.2154c-.1042.2828-.0156.3721.1651.5216.0142.012.039.034.0291.0603-.0057.0149-.0291.029-.068.0149l-.7278-.2707c-.0262-.0092-.0468-.0333-.0383-.0567.0092-.0234.0354-.0262.0652-.0255.2275.0014.365-.0042.467-.2799l.0808-.219-1.0552-.3912-.2169.5889c-.0347.0929-.056.2204-.0269.3203.0404.141.0893.1885.3224.4436.0106.0113.0276.034.0198.0546-.005.0149-.0276.0255-.0666.0113l-.5046-.1871c-.0617-.0227-.078-.068-.0595-.1176"/>
      <path class="cls-2" d="M41.386,22.9437c.0751-.0305.1828-.0886.27-.2324l.2353-.3891-1.958-1.1948-.219.3622c-.1708.2827-.0695.5081-.0007.6342.1233.2169.4699.4649.6583.5797.0737.046.6371.389,1.0141.2402M39.6136,21.4357l.4946-.8171c.0149-.0234.0482-.0326.078-.0149.0262.017.034.0503.0198.0744l-.0666.1084c-.0482.0801.0071.1431.078.1864l1.6987,1.0368c.0645.039.1382.0439.175-.017l.0744-.1219c.0128-.022.0432-.0326.073-.0149.0269.017.039.0496.0227.0758l-.4996.8256c-.085.141-.2544.2997-.4216.3692-.4167.1694-.8766-.039-1.1629-.2133-.7434-.4536-.8277-1.041-.5634-1.4775"/>
      <path class="cls-2" d="M38.3246,23.2259l.5485-.6902c.0156-.0192.0489-.0276.0787-.005.0241.0205.0276.0545.0099.0765l-.1098.1389c-.0581.073-.0135.1439.051.1956l1.5548,1.238c.0702.056.1375.0546.1864-.0071l.112-.1403c.0156-.0206.0475-.0269.0744-.005.0269.0212.0305.056.0128.0773l-.5478.6902c-.0156.0191-.0524.0262-.0787.0049-.0248-.0191-.0298-.0517-.0106-.0758l.1141-.1439c.0468-.0588.0305-.1276-.0397-.1828l-1.552-1.2359c-.0673-.0539-.1438-.0794-.2005-.0085l-.1141.1432c-.0156.0205-.0496.029-.0758.0071-.0276-.0212-.0305-.056-.0135-.0772"/>
      <path class="cls-2" d="M37.1397,25.0258c-.0276-.1241-.1042-.494.2154-.8171.4394-.445,1.1757-.3444,1.6654.1439.4996.4968.6031,1.2621.2069,1.6625-.0829.0836-.2076.1701-.4224.2161-.0361.0071-.0985.0205-.1198.0418-.0262.0269-.0262.0667-.0092.1226.0149.0595.0113.0779-.0042.0928-.0241.0241-.0659.0128-.1056-.0262l-.3919-.3898c-.0369-.0369-.0531-.0794-.0248-.1077.022-.0219.0248-.0191.1545.0312.2601.0957.5917.202.8348-.0432.3274-.3317.1013-.8993-.3515-1.35-.4358-.4337-.9772-.6477-1.3252-.2962-.085.0865-.1835.2296-.1928.4805-.0064.129.0028.1729.085.4791.0142.0446.0163.0773-.0035.0964-.0262.0269-.0687.0113-.0907-.0113-.0418-.0411-.095-.1991-.1205-.3253"/>
      <path class="cls-2" d="M37.0461,27.2477c.0085.0064.0489.0326.0659.0191s-.0028-.0638-.0042-.0708l-.3983-1.0212-.5613.4372.8979.6357ZM34.9669,26.2846l.5464-.4259c.0149-.0113.0475-.0106.0709.0199.0042.005.0291.0425,0,.0702-.09.0921-.1276.1297-.0808.1899.0276.0347.0602.0574.0808.0723l.4699.3352.6116-.4784-.1113-.2941c-.0099-.0276-.0489-.124-.102-.192-.102-.1304-.1729-.1099-.3054-.0723-.0092.0028-.0446.0128-.068-.017-.0191-.0248-.0191-.0603-.0021-.0737l.4656-.3629c.017-.0135.0517-.0099.073.0177.0213.0269.0206.0319-.0567.1757-.034.0616-.0255.1991.0567.411l.7349,1.8758c.039.1013.017.1233-.0078.1424l-.056.0439c-.0298.0227-.051.0305-.1148-.0156l-1.6646-1.1948c-.1169-.0843-.2211-.1424-.3189-.1665-.0638-.0163-.0999-.0014-.1502.0298-.0361.0191-.0624-.0092-.0687-.017-.0213-.0269-.0184-.0603-.0021-.0737"/>
      <path class="cls-2" d="M33.179,27.4069l1.5286-.9447c.0213-.0128.0588-.0113.0787.0212.0163.0262.0071.0595-.0163.0751l-.1219.0751c-.0794.0489-.0617.1311-.0184.2013l1.0439,1.6916c.0468.0766.1141.0957.1779.0567l.1212-.0751c.0213-.0135.056-.0106.0744.0192.0163.0262.0099.0623-.0142.0773l-.6938.4287c-.0213.0142-.0581.0078-.0758-.0213-.0163-.0269-.0078-.0609.0156-.0751l.1325-.0815c.0666-.0418.068-.1155.0248-.1856l-1.1268-1.8269-.7157.4415c-.2275.141-.2197.3267-.1325.6463.0135.0439.0227.0716-.0035.0872-.0241.0156-.0503-.0213-.0595-.0362l-.2445-.3962c-.0638-.1027-.0723-.1176.0255-.1785"/>
      <path class="cls-2" d="M31.0019,31.0955c.056-.0503.1517-.141.0113-.4649l-.4309-.9964c-.0744-.1715-.1361-.4238-.1183-.5783.0397-.338.2792-.5102.4791-.5967.3593-.1559.7696-.1311.995.3898l.6187,1.4287c.0354.0822.0957.1127.1644.0829l.068-.0298c.0227-.0092.0539-.0007.068.0312.012.0291.0035.0624-.022.0737l-.6413.2785c-.0227.0092-.0581-.0007-.0723-.0333-.012-.0283.0014-.0603.0269-.0716l.0999-.0432c.0737-.0319.0836-.1042.0503-.1807l-.5853-1.3514c-.2091-.4826-.4677-.5478-.7753-.4145-.4557.1984-.4231.6257-.2296,1.0722l.3905.9014c.1446.3338.2948.3139.3926.2977.0616-.0078.0822-.0057.095.0234.0135.0312-.0021.0645-.0255.0744l-.5471.2374c-.0199.0085-.0574-.0007-.0716-.0326-.0149-.0347-.0064-.039.0595-.0978"/>
      <path class="cls-2" d="M28.5797,31.9302c.0808-.0631.1396-.1623.0418-.4613l-.5598-1.7121c-.0397-.1219-.0439-.175.0205-.197.0298-.0092.0539-.0064.0815.0099.0205.0121.0914.0787.2176.1942l1.5633,1.4244c.0609.056.0702.0638.0815.0595.0064-.0014.0305-.0163.0085-.0857l-.472-1.4428c-.1141-.3479-.2813-.3699-.3799-.3812-.0942-.0085-.1056-.0128-.1148-.0418-.0106-.0333.005-.0631.0319-.0723l.5811-.192c.0206-.0071.0567.0035.068.0397.0149.0454-.0461.0879-.0702.1141-.0503.0567-.1403.1594-.0276.5045l.4642,1.4195c.0857.2629.1807.2537.248.2381.0517-.0092.0943-.0199.1091.0262.012.0354-.0128.0588-.0369.0666l-.4068.1346c-.0354.012-.0652.0106-.1389-.056l-1.5094-1.3762c-.0645-.0596-.0702-.0652-.0879-.0588-.017.0057-.0191.0212-.0042.0666l.4217,1.2883c.0439.1353.1056.2239.1269.2494.0475.0652.1148.09.2126.09.0361-.0014.0815-.0014.0964.0446.0085.0262.0014.0433-.0284.0532l-.5251.1736c-.0262.0092-.0496-.0021-.0588-.0319-.0142-.0425.0149-.0631.0461-.0879"/>
      <path class="cls-2" d="M26.6316,29.9426l.8525-.2197c.0241-.0057.0567.0071.0659.0439.0078.0305-.0106.0595-.0376.0666l-.1715.0446c-.0907.0227-.0978.107-.0772.1871l.4968,1.929c.022.0872.0772.1261.1524.107l.175-.0446c.0241-.0064.0539.0078.0617.0411.0092.0333-.0085.0631-.0361.0702l-.8518.219c-.0248.0064-.0581-.0099-.0659-.0433-.0085-.0305.0071-.0595.0368-.0673l.1779-.0454c.0723-.0184.1006-.0836.078-.1708l-.4954-1.9247c-.0213-.0836-.068-.151-.1552-.1283l-.1772.0461c-.0248.0057-.0567-.0071-.0652-.0411-.0085-.0333.0092-.0631.0361-.0695"/>
      <path class="cls-2" d="M24.8182,32.8819c-.0333.0064-.0468-.0128-.0517-.0397-.0078-.0369.0135-.0454.0638-.0787.1176-.0822.1857-.2253.1942-.3288l.1942-2.138c.0064-.0794.0113-.1049.0879-.1183.0765-.0149.0999.0227.1354.0935l1.0035,1.963c.0709.1382.1842.1665.3033.1616.0383-.0007.0631.0127.0723.0602.0042.0234-.0035.0503-.0312.0546l-.7285.1368c-.0305.0057-.0503-.0149-.056-.0418-.0085-.0439.0149-.0595.0468-.0723.1276-.0446.1793-.0758.1637-.1573-.0042-.0199-.0213-.0596-.0312-.0787l-.8837-1.7355-.1694,1.817c-.0028.022.0007.056.005.0758.0298.1574.1637.2091.2459.2084.0475-.0021.0673.005.0765.0517.0057.0305-.0035.0468-.0284.051l-.6123.1155Z"/>
      <path class="cls-2" d="M22.2762,30.641l1.778-.1942c.0276-.0035.0574.0142.0617.0517.0035.0312-.0184.0574-.0461.0609l-.1637.0177c-.0928.0099-.1091.0914-.0999.1743l.2161,1.9793c.0099.0893.0581.1368.1325.1276l.1637-.017c.0248-.0029.0546.0149.0588.0489.0028.0305-.0184.0609-.0468.0645l-1.7589.192c-.0588.0064-.0843-.029-.0907-.0872l-.0446-.4089c-.0042-.0382.0085-.0638.0305-.0666.0248-.0021.0461.0234.0652.0525.2041.3012.2495.3728.6045.3338l.6229-.0688-.1141-1.0474-.2282.0248c-.2991.0326-.3395.1516-.3926.3799-.0043.0184-.0135.0503-.0411.0539-.0156.0014-.039-.0128-.0432-.0545l-.0843-.7732c-.0028-.0276.0092-.0574.034-.0595.0248-.0022.0397.0198.0517.0468.1006.2041.1665.326.4599.2941l.2317-.0255-.1226-1.1204-.6229.068c-.0992.0106-.2232.0482-.2998.1198-.1077.0992-.129.1637-.2523.4869-.005.0142-.0177.0404-.0397.0425-.0156.0014-.0361-.0135-.0404-.0553l-.0581-.5357c-.0071-.0659.0262-.1.0787-.1056"/>
      <path class="cls-2" d="M20.9836,33.0996l.3855-.0106-.0269-1.0552-.4167.012c-.1524.0035-.4606.1396-.4493.5677.0092.3657.1835.4961.5074.4861M20.209,30.6782c.2239-.0064.2856.2161.3274.3912.0142.0617.0751.3699.0886.4387.0319.1375.102.4323.3912.4238l.3231-.0085-.0241-.9517c-.0021-.0893-.0319-.1686-.1191-.1665l-.1276.0042c-.022.0007-.0531-.0163-.0546-.0539-.0007-.0383.0269-.0595.0517-.0595l.7526-.022c.0255-.0007.0503.0191.0517.0574.0007.0347-.0234.056-.0489.056l-.1084.0035c-.0935.0029-.1191.0829-.1176.1658l.0503,1.9864c.0021.0864.0475.1403.1247.1382l.1098-.0028c.0241-.0014.0503.0191.051.0532.0007.0347-.0206.0595-.0489.0602l-.9801.0276c-.18.005-.4117-.0369-.5166-.1091-.1545-.1098-.2154-.2913-.2197-.467-.0127-.4869.3919-.6151.5556-.6683-.1396-.0893-.2594-.1757-.3402-.3834-.0262-.0687-.1219-.4145-.1488-.4897-.0376-.1162-.0737-.1984-.1361-.197-.0404.0021-.0737.0205-.1134.0624-.0156.0149-.0369.0354-.0553.0362-.0248.0007-.0347-.0128-.0354-.051-.0028-.0999.146-.2693.3168-.2743"/>
      <path class="cls-2" d="M17.9066,32.5452c.0028-.0553.0269-.0921.0581-.0907.0156.0014.0241.0113.0326.0291.0057.0113.0333.0787.0581.1311.073.1594.2268.4755.6095.4953.2587.0135.5138-.146.5287-.4259.0128-.224-.1134-.3203-.1552-.3529-.0687-.0524-.5223-.2041-.6421-.2452-.2239-.0737-.5946-.2487-.5669-.7626.0269-.4897.4663-.7157.7965-.6987.112.0057.2785.0418.5088.1545.0432.0192.1191.0588.1594.0603.0503.0021.1049-.0326.1453-.0886.0099-.0142.0369-.0432.0553-.0425.0312.0014.051.0375.0475.0957l-.0312.579c-.0028.0553-.0298.0921-.0553.0914-.0276-.0014-.0326-.0191-.0843-.1637-.1028-.2927-.4054-.5159-.7257-.5329-.2835-.0142-.5705.1637-.5882.4811-.0184.3416.2232.4337.7533.6031.2516.0794.6243.2268.5981.7158-.0234.4217-.355.6732-.7349.6534-.146-.0071-.2778-.0517-.433-.1297-.0425-.0192-.112-.0539-.1524-.056-.0127-.0007-.0567,0-.0928.0298-.0418.0319-.0496.0595-.0716.0588-.0248-.0021-.0482-.034-.0446-.0921l.0269-.4968Z"/>
      <path class="cls-2" d="M16.6253,30.4718l.8731.1056c.0248.0035.0503.0269.0461.0645-.0042.0312-.0319.0525-.0595.0489l-.1757-.0213c-.0928-.0113-.1297.0645-.1403.1467l-.2374,1.9793c-.0099.09.0262.1467.1035.1552l.1793.0227c.0248.0021.0468.0262.0432.0616-.0043.0333-.0319.0545-.0602.051l-.8731-.1063c-.0248-.0029-.0496-.0298-.0454-.0645.0035-.0305.0284-.0524.0588-.0489l.1821.0219c.0737.0092.124-.0404.1346-.1297l.2374-1.9757c.0099-.0865-.0085-.1637-.0978-.1758l-.1828-.0227c-.0241-.0021-.0496-.0262-.0454-.0609.0042-.034.0319-.056.0595-.0517"/>
      <path class="cls-2" d="M14.0529,31.9698c.0064.0007.0113.0057.017.0106.0057.0043.056.1871.0616.2084.0404.1488.1531.3225.4181.3735l.2133.0411.3997-2.0898c.0163-.0858.0078-.1722-.0808-.1885l-.1283-.0248c-.0241-.005-.0475-.0305-.0411-.0645s.0354-.0532.0631-.0475l.7654.1467c.0213.0049.0475.0305.0404.068-.0071.0375-.0376.0489-.0624.0446l-.1339-.0262c-.0886-.0163-.1311.056-.1467.1375l-.4004,2.0969.1949.0376c.0914.0177.2246.0156.3246-.0284.1247-.0567.1757-.1247.3125-.3097.0085-.0128.0248-.0312.0432-.0269.0177.0029.0354.0276.0291.0609l-.085.4422c-.0121.0652-.0546.0886-.1063.0786l-1.7617-.3401c-.0553-.0099-.0822-.051-.0709-.1112l.0843-.4429c.0071-.0333.0291-.0503.0503-.0461"/>
      <path class="cls-2" d="M11.5229,31.7438c.1013-.0014.236-.0411.3224-.1332l.8058-.8624.2466-.8185c.0248-.0829.0177-.1644-.0687-.1899l-.1013-.0312c-.0234-.0071-.0418-.0347-.0312-.0673.0099-.0326.0404-.0489.0673-.0404l.7406.2239c.0269.0078.0461.039.0361.0723-.0085.0298-.0397.0461-.0659.0375l-.1488-.0454c-.0893-.0262-.1389.0418-.163.1205l-.2268.7519.236,1.2933c.0262.1488.124.1998.2176.2466.0305.0163.0524.0298.0376.0794-.0135.0432-.0425.0453-.061.0397l-.6959-.2105c-.0205-.0064-.0454-.0319-.0326-.0744.0113-.0369.034-.0369.0503-.0362.0992.005.1531.0064.1736-.0588.0035-.0141.0078-.0489.0007-.0907l-.192-1.0729-.6668.7158c-.0227.0219-.0489.0539-.0588.0872-.0425.1389.0879.214.1127.2296.0368.017.0588.0284.0439.0779-.0092.0298-.0319.0411-.0581.0326l-.5769-.1743c-.0298-.0092-.0468-.0284-.0376-.0581.0106-.0369.0312-.0418.0942-.0439"/>
      <path class="cls-2" d="M8.6259,29.9359c.0241-.0496.0609-.0737.0886-.0602.0135.0064.0177.0205.0184.0404.0007.012,0,.0843.0021.1431.0035.175.0213.5265.3642.6959.231.1141.5272.068.6513-.1835.0992-.2013.0213-.3395-.0035-.3869-.0432-.0751-.399-.3926-.4925-.4776-.1757-.1559-.4472-.4635-.2204-.9248.2169-.4401.7079-.4755,1.0035-.3288.0999.0489.2388.1481.4061.3423.0319.0347.0857.1.1219.1184.0446.0212.1091.0113.1687-.0248.0142-.0092.0503-.0255.0673-.0177.0276.0141.0319.0545.0057.107l-.2558.5209c-.0248.0496-.0638.073-.0857.0616-.0248-.012-.0234-.0305-.0135-.1835.0206-.309-.1694-.6343-.4564-.7753-.2537-.1262-.5868-.0744-.7271.2112-.1516.3061.034.4862.4535.8504.1999.1722.4833.4542.2665.8943-.1857.3785-.5889.4798-.9291.3118-.1311-.0644-.2339-.1573-.3458-.2891-.0312-.0354-.0815-.095-.1176-.112-.0113-.0057-.0517-.022-.0964-.0099-.0517.0135-.0687.0354-.0886.0255-.0227-.0099-.0305-.0496-.005-.1021l.2197-.4465Z"/>
      <path class="cls-2" d="M7.1037,29.1612c-.0035.0106-.0149.056.0028.068.0184.0121.0602-.0227.0666-.0262l.8461-.6994-.5924-.3947-.3231,1.0524ZM7.3674,26.8843l.5769.3848c.0156.0106.0248.0411.0035.073-.0035.0057-.0312.0411-.0673.0212-.1155-.056-.163-.0801-.2055-.017-.0248.0376-.0354.0766-.0439.1007l-.1708.5506.6463.4309.2452-.1984c.0234-.017.1027-.085.1502-.1573.0928-.1375.051-.1984-.0262-.3125-.0057-.0078-.0262-.0382-.005-.0694.017-.0269.0503-.0369.0687-.0248l.4911.3267c.0184.0121.0255.0468.0064.0751-.0191.0291-.0241.0298-.185.0021-.0694-.0141-.1977.0383-.3735.1828l-1.5541,1.2877c-.0836.0687-.1113.0546-.1368.0375l-.0595-.0397c-.0312-.0213-.0454-.039-.0213-.1141l.6137-1.9559c.0432-.1375.0659-.2551.0588-.3558-.005-.0659-.0305-.0942-.0751-.1339-.0305-.0276-.0113-.0603-.0057-.0695.0191-.029.0503-.0369.0687-.0248"/>
      <path class="cls-2" d="M6.4574,26.0863l.6683.5726c.0191.0163.0269.0503.0021.0794-.0205.0227-.0546.0255-.0765.0071l-.1339-.1155c-.0716-.0603-.1439-.0184-.1977.0439l-1.2961,1.5116c-.0581.0687-.0588.1361,0,.1871l.1368.117c.0191.017.0248.0489.0021.0744-.022.0262-.0574.0291-.078.0106l-.669-.5726c-.0184-.0163-.0241-.0531-.0021-.0794.0205-.0241.0531-.0276.0765-.0071l.1389.119c.0574.0489.1261.0354.185-.0333l1.2926-1.5087c.0567-.0652.085-.141.0163-.2006l-.1389-.1191c-.0191-.0163-.0269-.0503-.005-.0765.0234-.0269.0574-.0283.0787-.0099"/>
      <path class="cls-2" d="M3.4945,25.7262c.0042.0049.0057.012.0071.0184.0014.0071-.0694.1821-.0787.2034-.0581.1417-.0744.3465.1049.5492l.1446.163,1.5909-1.4067c.0645-.0567.1098-.1304.0503-.1978l-.0872-.0971c-.0163-.0192-.0191-.0539.0064-.0773.0262-.022.0609-.0199.0794.0007l.5173.584c.0149.0163.0198.0532-.0085.0786-.0291.0248-.0602.0149-.0765-.0035l-.0907-.102c-.0602-.0673-.1382-.0361-.1998.0192l-1.5966,1.4109.1325.1488c.0616.0702.1687.1495.275.1757.1339.0305.2154.0078.4365-.0546.0149-.0049.039-.0085.051.005.0128.0142.0113.0439-.0149.0673l-.3359.2962c-.0496.0439-.0971.0362-.1318-.0028l-1.1927-1.3437c-.0369-.0418-.0333-.0907.0135-.1311l.3359-.2976c.0255-.0227.0539-.0227.068-.0064"/>
      <path class="cls-2" d="M2.4903,24.3797c-.0071.0078-.0383.0432-.0276.0624.0106.0191.0638.0064.0716.0057l1.0679-.2473-.355-.618-.7568.7972ZM3.7376,22.4607l.3458.601c.0092.0163.0035.0482-.0298.0673-.0057.0035-.0461.0227-.0695-.0106-.0787-.1021-.1105-.1446-.1765-.107-.0397.0227-.0659.0524-.0836.0694l-.3983.4167.3876.6754.3068-.068c.0291-.0057.1297-.0312.2048-.0737.1438-.0822.1339-.1552.1155-.292-.0014-.0092-.0064-.0461.0262-.0645.0269-.0163.0624-.0106.073.0078l.2941.5131c.0106.0184.0021.0525-.0276.0702-.0298.0163-.0347.0156-.1658-.0815-.0567-.0425-.1942-.0539-.416-.0028l-1.963.4578c-.1056.0248-.124-.0007-.1396-.0284l-.0354-.0616c-.0184-.0326-.0234-.0553.0319-.1112l1.418-1.4761c.0999-.1042.1722-.1991.2105-.2927.0248-.0609.0156-.0978-.0078-.1523-.0142-.039.017-.0603.0262-.0652.0298-.0177.0617-.0099.0723.0092"/>
      <path class="cls-2" d="M2.9658,19.9369l.1928.6902c.0071.0241-.0057.056-.0425.0666-.0333.0092-.0595-.0092-.0673-.0362l-.0333-.1205c-.0255-.0893-.1091-.0949-.1885-.0723l-1.9417.5471c-.0064.0021-.0397.0113-.034.0326.0035.0121.0255.0149.0475.0149l2.2117.0106c.1113.0014.1219.0014.1332.0411.0092.0326,0,.0383-.0872.0978l-1.783,1.1927c-.012.0064-.039.0269-.0333.0482.0071.0241.0602.0085.0836.0022l1.4889-.4196c.3125-.0878.4039-.2112.4174-.3671.0078-.0631.0149-.0751.0383-.0815.0298-.0092.0595.0085.0673.0354l.1516.5436c.0057.0205.0021.0468-.0312.0567-.0227.0064-.0312.0021-.0985-.0596-.0524-.0468-.1559-.1339-.518-.0319l-1.4591.411c-.1467.0418-.2374.0999-.2246.1991.017.1119.017.1247-.0298.1375-.0425.0128-.0595-.0085-.0645-.0262l-.1325-.4741c-.0071-.0276-.0177-.0758.0652-.1282l1.6469-1.0857-1.9063-.0092c-.09-.0007-.1495-.0092-.1765-.1056l-.1191-.4259c-.0071-.0241.0092-.0567.0425-.0666.0298-.0085.0588.0057.0673.0362l.0191.0687c.0213.0751.0921.0971.1715.0744l1.9113-.5379c.0829-.0241.1488-.0716.124-.1587l-.0191-.0687c-.0064-.0241.0057-.0567.039-.0666.0298-.0078.0638.0085.0709.0354"/>
      <path class="cls-2" d="M.9008,18.645c-.0106.0035-.0553.0184-.0553.0397,0,.0227.0517.0375.0588.0411l1.0524.3139v-.7122l-1.0559.3175ZM2.9432,17.5968v.6931c0,.0191-.0213.0439-.0588.0439-.0071,0-.0524-.0035-.056-.0439-.017-.1276-.0241-.18-.0999-.18-.0454,0-.0829.0121-.1077.0184l-.5535.1644v.7788l.3012.0936c.0276.0085.1276.0362.2147.0362.1658,0,.1935-.0673.2452-.1956.0035-.0099.0177-.0433.056-.0433.0312,0,.0588.0213.0588.0433v.591c0,.0227-.0248.0468-.0588.0468-.0347,0-.0383-.0028-.1042-.1523-.0276-.0659-.1417-.1432-.36-.2091l-1.9346-.5747c-.1042-.0312-.107-.0624-.107-.0936v-.0723c0-.0369.0064-.0581.0822-.0808l1.9701-.5783c.1382-.0404.2487-.0865.3288-.1495.0517-.0404.0624-.0773.0687-.1361.0071-.0411.0454-.0446.056-.0446.034,0,.0588.022.0588.0446"/>
      <path class="cls-2" d="M3.9721,14.0793l-.2473.6725c-.0085.0234-.0376.0425-.0737.029-.0319-.012-.0425-.0425-.0333-.0687l.0425-.1169c.0326-.0879-.0326-.1417-.1105-.1701l-1.8971-.7009c-.0064-.0021-.039-.0142-.0468.0057-.0043.012.012.0276.0291.0404l1.7915,1.3124c.09.0666.0985.073.0843.1112-.012.0319-.0227.0312-.1283.0291l-2.1465-.0857c-.0135-.0014-.0475-.0007-.0546.0198-.0085.0234.0432.0425.0659.051l1.4556.5379c.3054.1127.4514.0659.5542-.051.0425-.0475.056-.0532.0787-.0439.0291.0099.0432.0418.034.0687l-.1949.5294c-.0078.0199-.0262.0397-.0588.0276-.0227-.0085-.0269-.017-.0454-.1063-.0149-.0687-.0482-.2005-.4018-.3309l-1.4265-.5273c-.1432-.0524-.2516-.0588-.2991.0298-.051.0999-.0588.1105-.1042.0935-.0425-.0149-.0432-.0425-.0369-.0602l.1694-.4613c.0099-.0263.0305-.0716.1276-.0659l1.9743.0907-1.5442-1.131c-.0723-.0532-.1162-.0957-.0815-.1892l.1524-.4153c.0092-.0241.0418-.0411.0737-.0291.0291.0099.0446.0397.034.0687l-.0248.0666c-.0269.0737.017.1332.095.1616l1.8687.6902c.0808.0298.1623.0298.1935-.0553l.0248-.0666c.0085-.0234.0376-.0425.0702-.0305.0291.0099.0468.0439.0369.0702"/>
      <path class="cls-2" d="M5.0982,12.2649l-.9503,1.518c-.0149.0241-.0468.0375-.0794.0163-.0262-.0163-.0333-.0489-.0184-.0737l.0872-.1403c.0489-.0786-.005-.1424-.0758-.1856l-1.6909-1.0495c-.0765-.0489-.1439-.0397-.1835.0241l-.0872.1396c-.0127.0205-.0461.0347-.0751.017-.0262-.017-.0369-.0524-.022-.0773l.9404-1.5024c.0312-.0503.0751-.0489.1247-.0177l.3494.2176c.0326.0199.0454.0454.0333.0638-.0128.0212-.0461.0227-.0808.0199-.3643-.0255-.4486-.034-.6378.27l-.3338.5315.8957.557.1219-.1949c.1602-.2558.0914-.3607-.0553-.5428-.0113-.0142-.0312-.0418-.0163-.0652.0078-.0128.0347-.0227.0695-.0014l.6605.4117c.0241.0135.039.0411.0262.0624-.0135.0205-.0404.0191-.0687.0128-.2232-.0482-.36-.0695-.5166.1807l-.124.1963.9574.596.3331-.5336c.0531-.0836.0999-.2041.0914-.3083-.0106-.1467-.0489-.2027-.2261-.4989-.0085-.0127-.0206-.039-.0092-.0574.0085-.0128.0333-.0205.068.0022l.4578.2834c.056.0354.0631.0843.0347.129"/>
      <path class="cls-2" d="M4.5001,9.369c-.0794.0177-.1956.0567-.3054.1829l-.2976.3437,1.7341,1.5095.2771-.3189c.2154-.2494.1531-.4897.1063-.6243-.085-.2353-.3862-.5386-.5535-.6839-.0652-.0567-.5641-.4918-.9609-.4089M5.9982,11.1563l-.625.7214c-.0184.0205-.0531.0241-.0787.0007-.0241-.0199-.0255-.0553-.0078-.0758l.0836-.0971c.0609-.0702.0177-.141-.0454-.1955l-1.5045-1.3096c-.0567-.051-.129-.0673-.1765-.0142l-.0935.1084c-.0163.0191-.0482.0241-.0744.0014-.0234-.0205-.0298-.0553-.0092-.0787l.6314-.7285c.1077-.1247.3012-.2523.4783-.2927.4394-.095.8589.1878,1.1126.4089.6576.5726.6428,1.1658.309,1.5513"/>
      <path class="cls-2" d="M7.5502,9.5849l-.6435.6017c-.0184.0163-.0524.0205-.0787-.0064-.0213-.0234-.0198-.0581.0014-.0772l.129-.1205c.068-.0638.0347-.1417-.022-.2019l-1.3528-1.4535c-.0609-.0659-.1283-.0744-.185-.0212l-.1318.1233c-.0184.017-.0503.0191-.0737-.0064-.0241-.0255-.022-.0595-.0014-.0787l.6435-.6017c.0184-.017.0553-.0184.0787.0071.0213.0227.022.0553-.0014.0766l-.1339.1247c-.0546.0517-.0489.1219.012.1871l1.3507,1.4521c.0588.0631.1311.0992.1977.0375l.1339-.1254c.0177-.017.0524-.0213.0758.0042.0241.0248.022.0603.0014.0787"/>
      <path class="cls-2" d="M8.9781,7.9568c.0113.1261.039.5032-.321.7802-.4946.382-1.2125.1843-1.6349-.3629-.4302-.5584-.4323-1.3287.0128-1.6731.0935-.0716.2289-.141.4479-.1574.0376-.0035.0999-.0078.1247-.0262.0298-.0234.0347-.0624.0255-.1205-.0071-.0603-.0014-.0779.0163-.0907.0269-.0213.0673-.0043.1013.039l.338.4379c.0312.0411.0418.0858.0099.1099-.0248.0191-.0269.017-.1488-.0503-.2459-.1297-.5613-.2792-.8341-.068-.3699.2849-.2197.8766.1715,1.3826.3756.4876.8851.7703,1.2763.4691.0964-.0744.2126-.2034.2544-.45.0234-.1269.0198-.1722-.0213-.4854-.0078-.0461-.0057-.0787.0163-.0957.0298-.0234.0694-.0014.0886.0234.0361.0461.068.209.0765.338"/>
      <path class="cls-2" d="M9.3332,5.7656c-.0078-.0071-.0446-.0376-.0638-.0263-.0184.0114-.0042.0638-.0035.0709l.2778,1.0588.6095-.3685-.8199-.7349ZM11.2919,6.9618l-.5939.36c-.0156.0099-.0475.005-.068-.0276-.0035-.0057-.0241-.0461.0085-.0702.1006-.0808.1424-.1141.1028-.1786-.0241-.039-.0539-.0645-.0723-.0822l-.4287-.3863-.6654.4033.0765.3047c.0064.0283.0347.129.0801.2027.0865.141.1595.129.2948.1077.0106-.0021.0468-.0078.0666.0241.0163.0269.0113.0617-.0071.073l-.5053.3061c-.0184.0113-.0524.0035-.0709-.0255-.0177-.0298-.017-.0347.0765-.168.0418-.0567.0489-.1956-.0085-.4146l-.5138-1.9467c-.0276-.1049-.0028-.124.0241-.1396l.0609-.0376c.0326-.0191.0546-.0241.1127.0298l1.5194,1.3777c.1063.0971.2034.1673.2984.2027.0616.0234.0985.0128.1531-.0121.0383-.0149.0602.0156.0659.0248.0184.029.0121.0609-.0064.0723"/>
      <path class="cls-2" d="M13.1748,6.04l-1.615.7781c-.0227.0113-.0595.0057-.0758-.0291-.0135-.0276-.0021-.0595.0234-.0716l.129-.0624c.0836-.0411.0744-.124.0383-.1991l-.8632-1.7922c-.0397-.0808-.1035-.107-.1708-.0744l-.129.0616c-.0227.0114-.0567.005-.0716-.0262-.0135-.0283-.0028-.0645.0227-.0765l.7328-.3529c.0227-.0113.0581-.0021.073.0291.0135.0284.0014.0609-.0234.073l-.1403.0673c-.0694.034-.0787.1077-.0432.1821l.9326,1.9354.7561-.365c.2402-.1155.2516-.3012.1977-.6272-.0085-.0468-.0149-.0737.0128-.0872.0255-.0121.0475.0269.0553.0418l.2027.421c.0517.1084.0595.124-.0439.1743"/>
      <path class="cls-2" d="M16.1434,4.5674c-.0319.1233-.1325.4868-.5648.6271-.5953.1935-1.2069-.2331-1.4216-.8901-.219-.6704.0376-1.3975.574-1.5718.1127-.0369.2629-.0567.4755.0014.0361.0106.0971.0269.1269.017.0354-.0113.0532-.0461.0645-.1042.0135-.0588.0248-.073.0454-.0808.0326-.0099.0652.0199.0822.0723l.1722.5251c.0163.0496.0113.0949-.0276.1077-.0291.0092-.0305.0064-.1233-.0985-.1885-.2041-.4358-.4514-.7647-.3437-.4443.1439-.501.7512-.3019,1.3592.1906.5853.5768,1.024,1.0474.8703.1155-.0376.2686-.1198.3912-.3373.0645-.112.0765-.1559.1424-.4649.0085-.0461.0213-.0758.0475-.085.0361-.0106.0666.0227.0765.0524.0184.056-.0064.2197-.0418.3437"/>
      <path class="cls-2" d="M18.443,4.386l-1.7419.4103c-.0269.0064-.0588-.0071-.068-.0439-.0071-.0305.0113-.0596.0383-.0659l.1609-.0375c.0907-.0213.0964-.1049.0772-.1857l-.4613-1.9368c-.0206-.0865-.0751-.1276-.1474-.1099l-.1602.0375c-.0241.005-.056-.0078-.0638-.0411-.0071-.0305.0099-.0638.0376-.0694l1.7235-.4061c.0574-.0135.0872.0184.1006.0751l.0957.4004c.0085.0369-.0007.0638-.022.0695-.0241.0057-.0489-.0177-.0709-.0446-.2409-.2728-.2948-.3388-.6421-.2558l-.6116.1432.2445,1.0261.2239-.0532c.2927-.0702.3182-.1928.3423-.4252.0021-.0184.0071-.051.034-.0581.0156-.0029.0404.0078.0503.0482l.18.7568c.0064.0269-.0028.0574-.0269.0631-.0241.0057-.0418-.0141-.0574-.039-.1247-.1914-.2055-.3033-.4932-.2353l-.2268.0517.2608,1.0977.6109-.1446c.0971-.0227.2154-.0758.282-.1552.095-.1106.1077-.1779.1913-.5145.0021-.0141.012-.0411.0333-.0461.0149-.0035.0369.0092.0468.0482l.1247.5258c.0149.0638-.0142.1021-.0652.1141"/>
      <path class="cls-2" d="M20.4464,1.6289c-.09.0489-.1644.1368-.1169.4472l.2735,1.778c.0191.1254.0149.1786-.0524.1885-.0312.005-.0539-.0028-.0794-.0227-.0177-.0149-.0772-.0935-.1828-.2275l-1.3124-1.6632c-.051-.0652-.0588-.0751-.0709-.0723-.0064.0007-.0326.012-.022.0829l.2303,1.4981c.056.3614.2176.4103.3132.438.0914.0241.1013.0298.1063.0609.0057.0333-.0156.0616-.0432.0659l-.6059.0907c-.0213.0035-.0546-.0127-.0609-.0503-.0071-.0482.0602-.0794.0886-.1006.0588-.0475.1651-.1325.1098-.4911l-.2268-1.474c-.0418-.2728-.1368-.2792-.2062-.2757-.0531.0007-.0964.0035-.1042-.0439-.0057-.0369.0227-.0553.0475-.0596l.4245-.0638c.0369-.0057.0659.0007.1283.0786l1.2664,1.6072c.0546.0688.0588.0751.0773.0716.0184-.0021.0227-.017.0149-.0645l-.2055-1.3372c-.022-.1396-.068-.2381-.085-.2672-.0361-.0709-.0985-.107-.1956-.124-.0347-.0043-.0801-.0121-.0879-.0596-.0035-.0276.0064-.0432.0369-.0474l.5478-.0822c.0276-.0042.0482.0092.0531.0404.0064.0439-.0255.0595-.0602.0787"/>
      <path class="cls-2" d="M22.9352,1.9112c-.0057.0007-.0128-.0021-.0191-.0057-.0064-.0021-.1013-.1665-.1127-.1864-.0772-.1325-.2303-.2721-.4996-.2523l-.2169.0141.146,2.1211c.0057.0864.0369.168.1261.1616l.1304-.0092c.0248-.0014.0539.017.056.051.0028.0347-.0205.0609-.0482.0624l-.7781.0539c-.0213.0014-.0539-.0177-.0567-.0553-.0021-.0383.0241-.0574.0489-.0588l.1368-.0092c.0893-.0064.112-.0879.1063-.1701l-.1467-2.1281-.1984.0135c-.0928.0064-.2211.0432-.3061.1112-.1063.0872-.1389.1658-.2232.3792-.005.0141-.0163.0361-.0347.0369-.0191.0014-.0418-.0177-.0439-.0525l-.0312-.4486c-.005-.0652.0305-.0992.0836-.102l1.7908-.1233c.056-.0042.0921.0291.0964.0907l.0312.4486c.0021.034-.0149.056-.0369.0574"/>
      <path class="cls-2" d="M25.2058,3.8359l-1.7922-.0212c-.0284,0-.0553-.0213-.0553-.0596.0007-.0311.0255-.0552.0539-.0545l.1651.0021c.0928.0007.1191-.0787.1205-.1616l.0283-1.9942c.0014-.0893-.0411-.1424-.1155-.1432l-.1651-.0014c-.0248-.0007-.0524-.022-.0524-.056.0007-.0312.0255-.0595.0539-.0581l1.7738.0212c.0588,0,.0801.0383.0794.0978l-.0057.4117c-.0007.0383-.017.0624-.0383.0617-.0248,0-.0432-.0284-.0588-.0595-.1665-.3239-.2027-.4004-.5606-.4047l-.6279-.0078-.0156,1.0559.2303.0029c.3019.0035.3557-.1106.4372-.331.0064-.017.0191-.0482.0468-.0482.0163.0007.0376.0184.0369.0603l-.0106.7781c-.0007.0276-.017.0553-.0418.0553s-.0369-.0248-.0454-.0532c-.0751-.2148-.1261-.3437-.4217-.3472l-.2339-.0029-.0156,1.1282.6279.0071c.0999.0021.2275-.0205.3125-.0822.1198-.0843.1488-.1467.3118-.4536.0064-.0135.0227-.0375.0439-.0375.0156.0007.034.0177.0333.0595l-.0078.5407c-.0007.0652-.039.0957-.0914.0949"/>
      <path class="cls-2" d="M26.7748,1.5501l-.3848-.0375-.1028,1.0517.4153.0411c.1517.0141.4741-.0837.5159-.5088.0361-.365-.1212-.5152-.4436-.5464M27.2453,4.0517c-.2232-.0213-.2572-.2502-.2771-.4295-.0064-.0624-.0283-.3777-.034-.4472-.0149-.1396-.0475-.4415-.3359-.4692l-.3224-.0312-.0928.9482c-.0092.0886.0113.1715.0985.1793l.1269.0128c.022.0014.051.0213.0475.0603-.0035.0375-.034.0545-.0588.0524l-.7498-.0715c-.0248-.0029-.0475-.0263-.0439-.0638.0035-.034.0305-.0524.0553-.0503l.1077.0106c.0935.0085.129-.0673.1368-.1495l.1949-1.9793c.0085-.0865-.0298-.146-.107-.1531l-.1084-.0099c-.0248-.0029-.0482-.0255-.0439-.0603.0028-.0347.0269-.056.0546-.0539l.9765.0949c.18.017.4046.0879.4989.1729.141.1282.1786.3154.1616.4904-.0475.4847-.4649.5627-.6336.5946.1269.1063.236.2069.2899.4238.0177.0709.0702.4267.0879.5046.0227.1198.0489.2062.1106.2119.0404.0042.0758-.0099.1205-.0475.017-.0121.0404-.0312.0588-.0283.0248.0021.0333.0163.0298.0545-.0106.0999-.1786.2502-.3487.2332"/>
    </g>
  </g>
</svg>